<?xml version="1.0" encoding="UTF-8" standalone="no"?>
<svg
   xmlns:dc="http://purl.org/dc/elements/1.1/"
   xmlns:cc="http://creativecommons.org/ns#"
   xmlns:rdf="http://www.w3.org/1999/02/22-rdf-syntax-ns#"
   xmlns:svg="http://www.w3.org/2000/svg"
   xmlns="http://www.w3.org/2000/svg"
   viewBox="0 0 522.66669 522.66669"
   height="522.66669"
   width="522.66669"
   xml:space="preserve"
   id="svg2"
   version="1.1"><metadata
     id="metadata8"><rdf:RDF><cc:Work
         rdf:about=""><dc:format>image/svg+xml</dc:format><dc:type
           rdf:resource="http://purl.org/dc/dcmitype/StillImage" /></cc:Work></rdf:RDF></metadata><defs
     id="defs6" /><g
     transform="matrix(1.3333333,0,0,-1.3333333,0,522.66667)"
     id="g10"><g
       transform="scale(0.1)"
       id="g12"><path
         id="path14"
         style="fill:#fff;fill-opacity:1;fill-rule:nonzero;stroke:none"
         d="m 3871.99,278.398 -942.38,942.382 c 233.59,284.81 374.37,649.61 374.37,1047.23 C 3303.98,3180 2563.98,3920 1651.99,3920 739.219,3920 0,3180 0,2268.01 0,1356.02 739.219,616.02 1651.99,616.02 c 397.62,0 761.6,140 1046.41,373.589 L 3640.78,48.0117 c 64.02,-64.0312 167.23,-64.0312 231.21,0 64.03,63.1993 64.03,167.1873 0,230.3863 z m -2220,666.403 c -730.388,0 -1323.978,593.599 -1323.978,1323.209 0,729.61 593.59,1323.98 1323.978,1323.98 729.61,0 1324.03,-594.37 1324.03,-1323.98 0,-729.61 -594.42,-1323.209 -1324.03,-1323.209 z" /></g></g></svg>