<?xml version="1.0" encoding="UTF-8" standalone="no"?>
<svg
   xmlns:dc="http://purl.org/dc/elements/1.1/"
   xmlns:cc="http://creativecommons.org/ns#"
   xmlns:rdf="http://www.w3.org/1999/02/22-rdf-syntax-ns#"
   xmlns:svg="http://www.w3.org/2000/svg"
   xmlns="http://www.w3.org/2000/svg"
   viewBox="0 0 21.333332 21.333332"
   height="21.333332"
   width="21.333332"
   xml:space="preserve"
   id="svg2"
   version="1.1"><metadata
     id="metadata8"><rdf:RDF><cc:Work
         rdf:about=""><dc:format>image/svg+xml</dc:format><dc:type
           rdf:resource="http://purl.org/dc/dcmitype/StillImage" /></cc:Work></rdf:RDF></metadata><defs
     id="defs6" /><g
     transform="matrix(1.3333333,0,0,-1.3333333,0,21.333333)"
     id="g10"><g
       transform="scale(0.1)"
       id="g12"><path
         id="path14"
         style="fill:#8e36b7;fill-opacity:1;fill-rule:nonzero;stroke:none"
         d="m 48.0117,31.9883 c -8.7929,0 -16.0234,-7.1875 -16.0234,-15.9688 C 31.9883,7.19141 39.2188,0 48.0117,0 c 8.7891,0 15.9688,7.19141 15.9688,16.0195 0,8.7813 -7.1797,15.9688 -15.9688,15.9688 z M 0,160 V 143.98 H 16.0195 L 44.8008,83.1992 33.5898,63.9805 C 32.8086,61.6016 31.9883,58.3984 31.9883,56.0195 31.9883,47.1914 39.2188,40 48.0117,40 H 143.98 V 56.0195 H 51.2109 c -0.8203,0 -1.6015,0.7813 -1.6015,1.6016 v 0.7773 l 7.1914,13.5899 H 116.02 c 6.359,0 11.171,3.2109 13.589,8.0117 l 28.789,51.988 C 160,133.59 160,134.41 160,136.02 c 0,4.761 -3.199,7.96 -8.012,7.96 H 33.5898 L 26.4102,160 Z M 128.012,31.9883 c -8.793,0 -16.024,-7.1875 -16.024,-15.9688 C 111.988,7.19141 119.219,0 128.012,0 c 8.789,0 15.968,7.19141 15.968,16.0195 0,8.7813 -7.179,15.9688 -15.968,15.9688 z" /></g></g></svg>