<?xml version="1.0" encoding="UTF-8" standalone="no"?>
<svg
   xmlns:dc="http://purl.org/dc/elements/1.1/"
   xmlns:cc="http://creativecommons.org/ns#"
   xmlns:rdf="http://www.w3.org/1999/02/22-rdf-syntax-ns#"
   xmlns:svg="http://www.w3.org/2000/svg"
   xmlns="http://www.w3.org/2000/svg"
   viewBox="0 0 428 266.66666"
   height="266.66666"
   width="428"
   xml:space="preserve"
   id="svg2"
   version="1.1"><metadata
     id="metadata8"><rdf:RDF><cc:Work
         rdf:about=""><dc:format>image/svg+xml</dc:format><dc:type
           rdf:resource="http://purl.org/dc/dcmitype/StillImage" /></cc:Work></rdf:RDF></metadata><defs
     id="defs6"><clipPath
       id="clipPath20"
       clipPathUnits="userSpaceOnUse"><path
         id="path18"
         d="M 0,1995.42 H 3210 V 5.42188 H 0 Z" /></clipPath></defs><g
     transform="matrix(1.3333333,0,0,-1.3333333,0,266.66667)"
     id="g10"><g
       transform="scale(0.1)"
       id="g12"><g
         id="g14"><g
           clip-path="url(#clipPath20)"
           id="g16"><path
             id="path22"
             style="fill:#BA7BD8;fill-opacity:1;fill-rule:nonzero;stroke:none"
             d="M 3061.52,1141.24 H 472.93 l 617.66,617.73 c 54.14,54.06 54.14,141.8 0,195.86 -54.11,54.1 -141.84,54.1 -195.86,0 L 40.5898,1100.65 c -54.1093,-54.06 -54.1093,-141.798 0,-195.861 L 894.73,50.5703 C 921.762,23.5 957.23,9.98828 992.66,9.98828 c 35.43,0 70.89,13.51172 97.93,40.58202 54.14,54.1017 54.14,141.8007 0,195.8987 L 472.93,864.211 h 2588.59 c 76.49,0 138.52,62.027 138.52,138.509 0,76.49 -62.03,138.52 -138.52,138.52 z" /></g></g></g></g></svg>