<svg xmlns="http://www.w3.org/2000/svg" width="34.59" height="34.531" viewBox="0 0 34.59 34.531">
  <defs>
    <style>
      .cls-1 {
        fill: #8e36b7;
        fill-rule: evenodd;
      }
    </style>
  </defs>
  <path id="cart" class="cls-1" d="M1473.38,76.1a3.452,3.452,0,1,0,3.45,3.447,3.466,3.466,0,0,0-3.45-3.447h0ZM1463,48.467v3.458h3.46l6.22,13.118-2.42,4.148a6.161,6.161,0,0,0-.34,1.718,3.468,3.468,0,0,0,3.46,3.458h20.75V70.909h-20.06a0.367,0.367,0,0,1-.35-0.345V70.4l1.56-2.933h12.8a3.161,3.161,0,0,0,2.94-1.729l6.22-11.221a0.953,0.953,0,0,0,.35-0.87,1.63,1.63,0,0,0-1.73-1.718h-25.6l-1.55-3.458H1463ZM1490.67,76.1a3.452,3.452,0,1,0,3.46,3.447,3.466,3.466,0,0,0-3.46-3.447h0Zm0,0" transform="translate(-1463 -48.469)"/>
</svg>
