<?xml version="1.0" encoding="UTF-8" standalone="no"?>
<svg
   xmlns:dc="http://purl.org/dc/elements/1.1/"
   xmlns:cc="http://creativecommons.org/ns#"
   xmlns:rdf="http://www.w3.org/1999/02/22-rdf-syntax-ns#"
   xmlns:svg="http://www.w3.org/2000/svg"
   xmlns="http://www.w3.org/2000/svg"
   viewBox="0 0 52 65.333336"
   height="65.333336"
   width="52"
   xml:space="preserve"
   id="svg2"
   version="1.1"><metadata
     id="metadata8"><rdf:RDF><cc:Work
         rdf:about=""><dc:format>image/svg+xml</dc:format><dc:type
           rdf:resource="http://purl.org/dc/dcmitype/StillImage" /></cc:Work></rdf:RDF></metadata><defs
     id="defs6" /><g
     transform="matrix(1.3333333,0,0,-1.3333333,0,65.333333)"
     id="g10"><g
       transform="scale(0.1)"
       id="g12"><path
         id="path14"
         style="fill:#cfcfcf;fill-opacity:1;fill-rule:nonzero;stroke:none"
         d="M 376.02,433.988 H 263.629 c -0.859,10 -3.938,26.883 -14.488,37.703 C 242.461,478.52 234.02,482 223.98,482 h -80 c -10,0 -18.468,-3.48 -25.109,-10.309 C 108.32,460.871 105.23,443.988 104.34,433.988 H 8.01172 C 3.58984,433.988 0,430.441 0,425.98 c 0,-4.41 3.58984,-7.96 8.01172,-7.96 H 24.3398 L 39.6484,49.8086 c 0.3125,-13.75 8.8711,-39.7969 39.2618,-39.7969 H 305.078 c 30.391,0 38.981,26.0469 39.262,39.6485 L 359.691,418.02 h 16.329 c 4.41,0 7.96,3.55 7.96,7.96 0,4.461 -3.55,8.008 -7.96,8.008 z M 120,82 c 0,-4.4102 -3.59,-8.0117 -8.012,-8.0117 -4.41,0 -8.008,3.6015 -8.008,8.0117 v 263.98 c 0,4.461 3.598,8.008 8.008,8.008 4.422,0 8.012,-3.547 8.012,-8.008 z m 80,0 c 0,-4.4102 -3.59,-8.0117 -8.012,-8.0117 -4.41,0 -8.008,3.6015 -8.008,8.0117 v 263.98 c 0,4.461 3.598,8.008 8.008,8.008 4.422,0 8.012,-3.547 8.012,-8.008 z m 80,0 c 0,-4.4102 -3.59,-8.0117 -8.012,-8.0117 -4.41,0 -8.008,3.6015 -8.008,8.0117 v 263.98 c 0,4.461 3.598,8.008 8.008,8.008 4.422,0 8.012,-3.547 8.012,-8.008 z M 130.352,460.551 c 3.558,3.679 8.046,5.429 13.628,5.429 h 80 c 5.629,0 10.079,-1.75 13.68,-5.429 6.442,-6.602 9.02,-18.16 9.918,-26.563 H 120.43 c 0.898,8.403 3.48,19.961 9.922,26.563 z" /></g></g></svg>
